<svg
    xmlns="http://www.w3.org/2000/svg"
    viewBox="0 0 512 512"
    id="vector">
    <path
        id="path"
        d="M 25.001 125.002 M 0.001 125.002 C 0.001 118.374 2.637 112.011 7.323 107.324 C 12.01 102.638 18.373 100.002 25.001 100.002 C 31.629 100.002 37.992 102.638 42.679 107.324 C 47.365 112.011 50.001 118.374 50.001 125.002 C 50.001 131.63 47.365 137.993 42.679 142.68 C 37.992 147.366 31.629 150.002 25.001 150.002 C 18.373 150.002 12.01 147.366 7.323 142.68 C 2.637 137.993 0.001 131.63 0.001 125.002"
        fill="#ffffff"/>
    <path
        id="path_1"
        d="M 487.001 125.002 M 462.001 125.002 C 462.001 118.374 464.637 112.011 469.323 107.324 C 474.01 102.638 480.373 100.002 487.001 100.002 C 493.629 100.002 499.992 102.638 504.679 107.324 C 509.365 112.011 512.001 118.374 512.001 125.002 C 512.001 131.63 509.365 137.993 504.679 142.68 C 499.992 147.366 493.629 150.002 487.001 150.002 C 480.373 150.002 474.01 147.366 469.323 142.68 C 464.637 137.993 462.001 131.63 462.001 125.002"
        fill="#ffffff"/>
    <path
        id="path_2"
        d="M 75.001 25.002 M 50.001 25.002 C 50.001 18.374 52.637 12.011 57.323 7.324 C 62.01 2.638 68.373 0.002 75.001 0.002 C 81.629 0.002 87.992 2.638 92.679 7.324 C 97.365 12.011 100.001 18.374 100.001 25.002 C 100.001 31.63 97.365 37.993 92.679 42.68 C 87.992 47.366 81.629 50.002 75.001 50.002 C 68.373 50.002 62.01 47.366 57.323 42.68 C 52.637 37.993 50.001 31.63 50.001 25.002"
        fill="#ffffff"/>
    <path
        id="path_5"
        d="M 29.001 238.002 M 4.001 238.002 C 3.984 232.713 5.647 227.552 8.748 223.267 C 11.849 218.981 16.231 215.789 21.261 214.151 C 26.29 212.514 31.712 212.514 36.741 214.151 C 41.771 215.789 46.153 218.981 49.254 223.267 C 52.355 227.552 54.018 232.713 54.001 238.002 C 54.001 244.63 51.365 250.993 46.679 255.68 C 41.992 260.366 35.629 263.002 29.001 263.002 C 22.373 263.002 16.01 260.366 11.323 255.68 C 6.637 250.993 4.001 244.63 4.001 238.002"
        fill="#ffffff"/>
    <path
        id="path_6"
        d="M 312.141 441.968 C 301.627 438.581 290.359 444.351 286.967 454.863 L 281.438 472.003 L 229.565 472.003 L 224.036 454.863 C 220.644 444.35 209.375 438.575 198.862 441.968 C 188.349 445.359 182.577 456.63 185.967 467.142 L 195.967 498.142 C 198.632 506.404 206.321 512.002 215.001 512.002 L 296.001 512.002 C 304.681 512.002 312.37 506.403 315.035 498.142 L 325.035 467.142 C 328.426 456.63 322.653 445.359 312.141 441.968 Z"
        fill="#ffffff"/>
    <path
        id="path_7"
        d="M 484.001 238.002 M 459.001 238.002 C 459.001 231.374 461.637 225.011 466.323 220.324 C 471.01 215.638 477.373 213.002 484.001 213.002 C 490.629 213.002 496.992 215.638 501.679 220.324 C 506.365 225.011 509.001 231.374 509.001 238.002 C 509.001 244.63 506.365 250.993 501.679 255.68 C 496.992 260.366 490.629 263.002 484.001 263.002 C 477.373 263.002 471.01 260.366 466.323 255.68 C 461.637 250.993 459.001 244.63 459.001 238.002"
        fill="#ffffff"/>
    <path
        id="path_8"
        d="M 439.001 25.002 M 414.001 25.002 C 414.001 18.374 416.637 12.011 421.323 7.324 C 426.01 2.638 432.373 0.002 439.001 0.002 C 445.629 0.002 451.992 2.638 456.679 7.324 C 461.365 12.011 464.001 18.374 464.001 25.002 C 464.001 31.63 461.365 37.993 456.679 42.68 C 451.992 47.366 445.629 50.002 439.001 50.002 C 432.373 50.002 426.01 47.366 421.323 42.68 C 416.637 37.993 414.001 31.63 414.001 25.002"
        fill="#ffffff"/>
    <path
        id="path_9"
        d="M 297.001 181.002 L 252.865 181.002 L 290.275 128.627 C 296.696 119.639 294.614 107.148 285.626 100.728 C 276.639 94.306 264.147 96.388 257.727 105.377 L 197.727 189.377 C 193.373 195.474 192.789 203.492 196.218 210.153 C 199.646 216.815 206.509 221.002 214.001 221.002 L 257.69 221.002 L 221.835 270.227 C 215.332 279.156 217.298 291.665 226.226 298.168 C 229.78 300.757 233.901 302.003 237.985 302.003 C 244.161 302.003 250.254 299.151 254.168 293.777 L 313.168 212.777 C 317.599 206.694 318.24 198.639 314.827 191.932 C 311.414 185.226 304.526 181.002 297.001 181.002 Z"
        fill="#ffffff"/>
    <path
        id="path_10"
        d="M 256.001 0.002 C 256.146 -0.001 255.857 -0.001 256.001 0.002 Z"
        fill="#ffffff"/>
    <path
        id="path_11"
        d="M 387.1 51.442 C 352.902 18.576 305.803 0.335 256.001 0.002 C 206.199 0.335 159.1 18.576 124.902 51.442 C 89.499 85.467 70.001 132.545 70.001 184.003 C 70.001 237.416 91.782 293.166 132.991 345.229 C 163.567 383.858 194.021 407.004 195.303 407.971 C 198.773 410.588 203 412.003 207.346 412.003 L 303.702 412.003 C 308.021 412.003 312.224 410.605 315.682 408.018 C 316.974 407.052 347.664 383.913 378.484 345.29 C 420.037 293.217 442.001 237.444 442.001 184.003 C 442.001 132.544 422.503 85.467 387.1 51.442 Z M 296.681 372.002 L 214.415 372.002 C 192.986 354.052 110.001 278.417 110.001 184.002 C 110.001 102.141 172.849 40.351 256.001 40.002 C 339.153 40.351 402.001 102.141 402.001 184.002 C 402.001 278.477 318.164 354.164 296.681 372.002 Z"
        fill="#ffffff"/>
</svg>
