<svg
    xmlns="http://www.w3.org/2000/svg"
    viewBox="0 0 469 469"
    id="vector">
    <path
        id="path_3"
        d="M 253.227 300.267 L 253.227 300.267 L 199.04 246.72 L 199.68 246.08 C 236.8 204.693 263.253 157.12 278.827 106.773 L 341.334 106.773 L 341.334 64 L 192 64 L 192 21.333 L 149.333 21.333 L 149.333 64 L 0 64 L 0 106.453 L 238.293 106.453 C 223.893 147.626 201.386 186.666 170.666 220.8 C 150.826 198.72 134.399 174.72 121.386 149.333 L 78.72 149.333 C 94.293 184.106 115.627 216.96 142.293 246.613 L 33.813 353.813 L 64 384 L 170.667 277.333 L 237.014 343.68 L 253.227 300.267 Z"
        fill="#ffffff"/>
    <path
        id="path_4"
        d="M 373.333 192 L 330.666 192 L 234.666 448 L 277.333 448 L 301.333 384 L 402.666 384 L 426.666 448 L 469.333 448 L 373.333 192 Z M 317.333 341.333 L 352 248.853 L 386.667 341.333 L 317.333 341.333 Z"
        fill="#ffffff"/>
</svg>
