<svg
    xmlns="http://www.w3.org/2000/svg"
    viewBox="0 0 28 28"
    id="vector">
    <path
        id="path"
        d="M 21.472 6.082 C 22.579 6.082 23.47 5.193 23.47 4.088 L 23.47 1.998 C 23.47 0.891 22.579 0 21.472 0 C 20.37 0 19.476 0.891 19.476 1.998 L 19.476 4.088 C 19.476 5.193 20.37 6.082 21.472 6.082 Z"
        fill="#ffffff"
        stroke-width="1"/>
    <path
        id="path_1"
        d="M 28.573 3.46 L 24.548 3.46 L 24.548 4.472 C 24.548 6.153 23.187 7.517 21.505 7.517 C 19.823 7.517 18.464 6.153 18.464 4.472 L 18.464 3.46 L 10.349 3.46 L 10.349 4.472 C 10.349 6.153 8.988 7.517 7.306 7.517 C 5.626 7.517 4.267 6.153 4.267 4.472 L 4.267 3.46 L 0.208 3.408 L 0.208 28.809 L 2.237 28.81 L 26.575 28.81 L 28.602 28.803 L 28.573 3.46 Z M 26.575 26.789 L 2.237 26.789 L 2.237 10.559 L 26.575 10.559 L 26.575 26.789 Z"
        fill="#ffffff"
        stroke-width="1"/>
    <path
        id="path_2"
        d="M 7.276 6.082 C 8.38 6.082 9.27 5.193 9.27 4.088 L 9.27 1.998 C 9.27 0.891 8.38 0 7.276 0 C 6.172 0 5.278 0.891 5.278 1.998 L 5.278 4.088 C 5.278 5.193 6.173 6.082 7.276 6.082 Z M 9.954 22.399 C 10.71 21.75 11.266 20.694 11.266 19.17 C 11.266 17.763 10.743 16.782 9.918 16.17 C 9.16 15.604 8.17 15.318 6.643 15.318 C 5.748 15.318 4.879 15.39 4.221 15.496 L 4.221 23.308 C 4.659 23.367 5.33 23.426 6.266 23.426 C 7.827 23.426 9.114 23.094 9.954 22.399 Z M 6.019 16.772 C 6.173 16.735 6.443 16.701 6.833 16.701 C 8.394 16.701 9.366 17.576 9.366 19.23 C 9.366 21.13 8.286 22.031 6.643 22.018 C 6.43 22.018 6.172 22.018 6.018 21.985 L 6.019 16.772 Z M 14.114 21.298 L 16.393 21.298 L 17.01 23.345 L 18.961 23.345 L 16.479 15.377 L 14.114 15.377 L 11.69 23.345 L 13.549 23.345 L 14.114 21.298 Z M 14.845 18.261 C 14.978 17.801 15.097 17.198 15.214 16.724 L 15.237 16.724 C 15.356 17.198 15.497 17.79 15.641 18.261 L 16.135 19.953 L 14.373 19.953 L 14.845 18.261 Z M 20.737 23.346 L 22.532 23.346 L 22.532 20.021 L 25.155 15.378 L 23.135 15.378 L 22.33 17.292 C 22.094 17.858 21.906 18.32 21.728 18.817 L 21.703 18.817 C 21.515 18.297 21.34 17.872 21.092 17.292 L 20.287 15.378 L 18.219 15.378 L 20.737 20.081 L 20.737 23.346 Z"
        fill="#ffffff"
        stroke-width="1"/>
</svg>
